<svg width="1200" height="306" viewBox="0 0 1200 306" fill="none" xmlns="http://www.w3.org/2000/svg">
<g clip-path="url(#clip0_4_38)">
<rect width="1200" height="306" rx="40" fill="#93BBEA"/>
<path d="M1090.42 204.092C1088.06 192.166 1083.76 181.073 1082.55 170.039C1082.29 167.657 1080.4 165.657 1078.3 165.822C1076.19 165.987 1071.62 169.01 1070.45 178.318C1069.59 185.056 1075.1 193.893 1072.28 196.733C1069.46 199.573 1092.5 205.4 1090.42 204.092Z" fill="#F5C1C7"/>
<path d="M1016.82 114.857C1011.67 116.461 1007.64 139.661 1006.04 146.543C996.284 188.554 982.922 237.239 981.736 242.344C980.253 248.726 982.723 249.86 985.719 251.677C988.714 253.494 1048.25 267.886 1053.41 266.282C1057.53 264.998 1060.02 255.486 1060.02 255.486C1069.62 215.121 1086.28 141.866 1086.55 138.343C1086.89 133.938 1087.51 131.279 1085.16 129.612C1082.81 127.946 1075.46 126.239 1071.79 125.385C1055.19 121.341 1024.93 112.336 1016.82 114.857Z" fill="#5992E8"/>
<path opacity="0.4" d="M1048.02 157.869C1049.95 159.829 1050.71 161.67 1050.6 164.419V164.419C1050.41 169.609 1043.38 171.946 1038.2 171.635C1037.85 171.614 1037.51 171.575 1037.18 171.515C1034.62 171.035 1031.97 165.881 1032.89 161.855V161.855C1034.17 156.2 1043.17 154.009 1047.72 157.605C1047.83 157.689 1047.92 157.777 1048.02 157.869Z" fill="#FAF8F9"/>
<path opacity="0.4" d="M1044.89 151.739C1043.86 153.14 1042.01 154.241 1040.88 154.536C1040.46 154.644 1040.06 154.462 1039.73 154.19C1039.52 154.012 1039.33 153.792 1039.3 153.513C1039.27 153.026 1039.4 152.185 1040.05 151.011C1040.65 149.929 1042.45 149.097 1044.09 148.564C1045.31 148.167 1046.19 148.986 1045.72 150.177C1045.5 150.731 1045.22 151.294 1044.89 151.739Z" fill="#FAF8F9"/>
<circle opacity="0.4" cx="1072.04" cy="140.377" r="3.62998" transform="rotate(37.0464 1072.04 140.377)" fill="#FAF8F9"/>
<path d="M1112.17 245.614C1090.86 226.995 1094.29 213.976 1090.46 203.954C1088.22 198.077 1077.98 188.115 1075.94 196.991C1075 201.093 1063.59 194.875 1061.51 193.567C1055.3 189.661 1048.1 183.544 1042.91 179.628C1038.46 176.27 1033.19 171.117 1032.43 177.119C1031.66 183.121 1043.7 196.489 1047.06 200.947C1050.42 205.406 1053.78 209.865 1048.44 211.327C1043.1 212.79 1022.17 192.039 1015.34 189.772C1008.51 187.505 1005.04 189.696 1017.65 204.45C1030.25 219.203 1032.01 226.582 1030.88 227.718C1029.76 228.854 1028.63 229.99 1015.26 221.238C1001.89 212.486 992.631 210.058 990.941 211.762C989.251 213.466 990.466 215.525 991.957 217.276C996.446 222.552 1015.88 237.62 1017.27 240.133C1018.3 241.97 1016.31 242.575 1014.93 242.498C1002.02 241.781 988.717 238.85 986.937 239.338C985.156 239.825 983.557 242.745 986.826 245.988C988.982 248.127 998.48 253.416 1003.28 255.549C1014.88 262.166 1062.78 285.632 1066.75 286.863C1071.7 288.401 1062.55 283.877 1067.68 280.931C1077.58 275.255 1082.77 269.697 1089.63 261.701C1095.59 254.756 1133.49 264.234 1112.17 245.614Z" fill="#F5C1C7"/>
<path d="M1160.32 269.662C1141.17 260.57 1105.13 239.563 1099.78 231.302C1099.71 231.174 1099.63 231.047 1099.55 230.919C1099.62 231.044 1099.7 231.171 1099.78 231.302C1111.56 251.628 1047.57 273.645 1065.56 285.261C1083.66 296.949 1221.93 363.054 1225.1 345.007C1226.95 334.416 1249.31 340.272 1252.01 330.006C1255.2 317.883 1280.77 315.857 1275.63 308.592C1270.49 301.328 1179.79 278.898 1160.32 269.662Z" fill="#F5C1C7"/>
<path d="M104.795 167.218C98.9136 183.327 94.9879 202.653 105.348 204.512C115.707 206.37 114.322 183.244 126.055 177.56C137.789 171.877 156.942 183.634 163.497 184.997C170.052 186.361 177.308 188.733 176.7 171.822C176.092 154.911 170.476 100.486 169.043 86.3156C167.61 72.1447 156.281 71.4612 145.517 78.277C134.752 85.0928 54.3434 142.832 47.8639 150.576C41.3845 158.32 41.6582 161.158 47.8219 162.263C53.9857 163.369 73.1823 169.219 83.6415 161.598C99.6497 149.934 133.657 108.923 139.136 110.193C144.488 111.433 109.372 154.682 104.795 167.218Z" fill="#5992E8"/>
<path d="M8.76829 211.438C4.16404 214.132 -0.609453 217.986 1.50507 220.486C3.61959 222.986 7.87372 217.168 11.8132 218.133C15.7527 219.097 18.012 225.714 19.3127 227.34C20.6135 228.967 21.8822 230.975 25.0902 226.801C28.2982 222.627 37.745 208.468 40.2118 204.787C42.6787 201.107 40.0987 198.696 36.1669 198.195C32.2351 197.694 1.51174 195.587 -1.57701 196.159C-4.66577 196.73 -5.16302 197.464 -3.90484 198.952C-2.64667 200.439 0.794284 205.648 4.81259 205.896C10.9627 206.274 27.2467 203.189 28.3082 204.58C29.3451 205.938 12.3515 209.34 8.76829 211.438Z" fill="#5992E8"/>
<path d="M247.169 57.4142C247.629 60.4757 248.677 63.8781 250.48 63.2772C252.282 62.6763 250.064 59.1307 251.432 57.2157C252.801 55.3007 256.852 55.5086 258.009 55.1582C259.166 54.8077 260.521 54.5565 258.963 51.9287C257.405 49.3009 251.811 41.1604 250.359 39.0382C248.907 36.9161 247.052 37.787 245.935 39.7977C244.818 41.8084 237.064 57.9098 236.707 59.6972C236.349 61.4847 236.638 61.9108 237.71 61.5533C238.783 61.1957 242.331 60.4638 243.33 58.3518C244.859 55.1194 246.704 45.6801 247.682 45.4077C248.638 45.1417 246.81 55.0316 247.169 57.4142Z" fill="#5992E8"/>
</g>
<defs>
<clipPath id="clip0_4_38">
<rect width="1200" height="306" rx="40" fill="white"/>
</clipPath>
</defs>
</svg>
